<?xml version="1.0" encoding="utf-8"?>
<!-- Generator: Adobe Illustrator 23.0.1, SVG Export Plug-In . SVG Version: 6.00 Build 0)  -->
<svg version="1.1" xmlns="http://www.w3.org/2000/svg" xmlns:xlink="http://www.w3.org/1999/xlink" x="0px" y="0px"
	 viewBox="0 0 549.6 690" style="enable-background:new 0 0 549.6 690;" xml:space="preserve">
<style type="text/css">
	.st0{fill:#FED100;}
	.st1{fill:#97512C;}
	.st2{fill:#7C3E25;}
	.st3{fill:#FFDB31;}
	.st4{fill:#FFDF5A;}
	.st5{fill:#8D492B;}
	.st6{fill:#FCC200;}
	.st7{fill:#FFF3C0;}
	.st8{fill:#D69A13;}
</style>
<g id="BG">
	<g id="Layer_2">
	</g>
</g>
<g id="Icon">
	<g>
		<g>
			<path class="st0" d="M274.8,491.1c-33.2,0-64.2,9.2-90.7,25.3v8.6h181.3v-8.6C339,500.3,308,491.1,274.8,491.1z"/>
			<g>
				<rect x="160.2" y="525" class="st1" width="229.3" height="143.3"/>
			</g>
			<g>
				<rect x="144.3" y="668.3" class="st2" width="261" height="21.7"/>
			</g>
			<g>
				<path class="st0" d="M292.9,350.3c-5.6,2.1-11.7,3.3-18.1,3.3c-6.4,0-12.5-1.2-18.1-3.3l0-0.1c0-10.6-5.1-21.7-15.3-29.4
					l-0.2-0.1c-35.6-23.9-64.3-57.3-82.6-96.6l0,0C126.8,156.1,109,80.1,109,0h331.6c0,80.1-17.8,156.1-49.7,224.1l0,0
					c-18.2,39.2-47,72.6-82.6,96.6l-0.2,0.1C298,328.6,292.9,339.6,292.9,350.3L292.9,350.3z"/>
			</g>
			<g>
				<path class="st0" d="M290.2,351.2c0,10,4.4,18.4,11.4,24.6h0c2.4,2.2,3.9,5.4,3.9,9c0,6.7-5.5,12.2-12.2,12.2
					c-0.1,0-0.2,0-0.4,0h-36.5c-0.1,0-0.2,0-0.4,0c-6.7,0-12.2-5.5-12.2-12.2c0-3.6,1.5-6.7,3.9-9h0c7-6.1,11.4-14.5,11.4-24.6
					H290.2z"/>
			</g>
			<g>
				<path class="st3" d="M305.7,501.5c-9.8,2.9-20.2,4.4-30.9,4.4s-21.1-1.6-30.9-4.4l0.1-0.3V481c7.7-18.1,11.9-38.1,11.9-59
					c0-8.6-0.7-17-2.1-25.3h42c-1.4,8.2-2.1,16.7-2.1,25.3c0,20.9,4.2,40.9,11.9,59v20.2L305.7,501.5z"/>
			</g>
			<g>
				<path class="st0" d="M157.7,316.6c-8.4,0-16.6-3-23-8.5c-5.2-4.4-5.8-12.2-1.3-17.4c4.4-5.2,12.2-5.8,17.4-1.3
					c1.4,1.2,3.7,2.6,6.9,2.6c5.9,0,10.7-4.8,10.7-10.7c0-0.8-0.1-1.7-0.3-2.5c-1.7-5.9-4.9-11.3-9.2-15.6c-1.2-0.9-2.1-1.9-2.6-2.5
					L48.1,159.2C12.3,125.5-14,72.9,8.1,31.1C17.5,13.3,36.4,1.5,56.4,0.9c0.3,0,0.6,0,0.9,0h1c0.3,0,0.6,0,0.9,0
					c29.9,1,53.9,25.6,53.9,55.7c0,14-5.2,27.4-14.7,37.7c-4.6,5-12.4,5.4-17.5,0.7c-5-4.6-5.4-12.4-0.7-17.5
					c5.3-5.7,8.2-13.2,8.2-21c0-17-13.7-30.8-30.6-31.1C46.3,25.7,35.4,32.4,30,42.6C14,72.8,37,114.8,65,141.1l108.5,101.8
					c0.3,0.3,0.6,0.6,0.8,0.8c0.3,0.2,0.6,0.5,0.8,0.7c8.1,7.6,13.9,17.2,16.8,27.9c0,0.1,0.1,0.2,0.1,0.3c0.7,2.8,1.1,5.7,1.1,8.6
					C193.1,300.7,177.2,316.6,157.7,316.6z M156.5,260.9C156.5,260.9,156.6,260.9,156.5,260.9L156.5,260.9z M166.7,241.1
					C166.7,241.1,166.7,241.1,166.7,241.1C166.7,241.1,166.7,241.1,166.7,241.1z M166.6,241.1C166.6,241.1,166.6,241.1,166.6,241.1
					C166.6,241.1,166.6,241.1,166.6,241.1z"/>
			</g>
			<g>
				<path class="st0" d="M356.6,281.2c0-2.9,0.4-5.8,1.1-8.6c0-0.1,0.1-0.2,0.1-0.3c2.9-10.6,8.8-20.3,16.8-27.9
					c0.3-0.3,0.5-0.5,0.8-0.7c0.2-0.2,0.5-0.5,0.8-0.8l108.5-101.8c28-26.3,51-68.4,35.1-98.5c-5.4-10.2-16.3-16.9-27.9-17.1
					c-16.9,0.3-30.6,14.1-30.6,31.1c0,7.8,2.9,15.3,8.2,21c4.6,5,4.3,12.8-0.7,17.5c-5,4.6-12.8,4.3-17.5-0.7
					c-9.5-10.3-14.7-23.7-14.7-37.7c0-30.1,24-54.8,53.9-55.7c0.3,0,0.6,0,0.9,0h1c0.3,0,0.6,0,0.9,0c20.1,0.7,38.9,12.4,48.3,30.2
					c22.1,41.8-4.2,94.4-40,128.1L393.4,260.6c-0.6,0.6-1.4,1.6-2.6,2.5c-4.4,4.3-7.6,9.7-9.2,15.6c-0.2,0.8-0.3,1.6-0.3,2.5
					c0,5.9,4.8,10.7,10.7,10.7c3.3,0,5.6-1.4,6.9-2.6c5.2-4.4,13-3.8,17.4,1.3c4.4,5.2,3.8,13-1.3,17.4c-6.4,5.5-14.6,8.5-23,8.5
					C372.5,316.6,356.6,300.7,356.6,281.2z M393.1,261C393.1,260.9,393.1,260.9,393.1,261L393.1,261z M383,241.1
					C383,241.1,383,241.1,383,241.1C383,241.1,383,241.1,383,241.1z M383,241.1C383,241.1,383,241.1,383,241.1
					C383,241.1,383,241.1,383,241.1z"/>
			</g>
			<g>
				<path class="st4" d="M179.4,15.1h-56.1c0,57.2,11.2,111.8,31.5,161.7c-3.1-15.2-4.7-31-4.7-47.1
					C150.1,88.1,160.7,49.1,179.4,15.1z"/>
			</g>
			<g>
				<path class="st5" d="M160.2,668.3h229.3V525C389.5,525,312.8,668.3,160.2,668.3z"/>
			</g>
			<g>
				<rect x="191.2" y="558.1" class="st0" width="167.2" height="81.9"/>
			</g>
			<g>
				<path class="st4" d="M17.5,47.4c10-18.9,30-31.4,51.3-32.1c0.3,0,0.6,0,1,0h1c0.3,0,0.6,0,0.9,0c6.5,0.2,12.7,1.5,18.5,3.6
					C81.7,11,70.4,6.1,58,5.6c-0.3,0-0.5,0-0.8,0h-0.9c-0.3,0-0.5,0-0.8,0c-18,0.6-34.8,11.1-43.3,27.1C3.2,49.9,3.2,69.2,9,87.8
					C8.2,73.9,10.7,60.2,17.5,47.4z"/>
			</g>
			<g>
				<g>
					<path class="st6" d="M193.1,277.7c14,16.4,30.2,30.9,48.2,43l0.2,0.1c10.2,7.8,15.3,18.8,15.3,29.4l0,0.1
						c5.6,2.1,11.7,3.3,18.1,3.3c6.4,0,12.5-1.2,18.1-3.3l0-0.1c0-10.6,5.1-21.7,15.3-29.4l0.2-0.1c35.6-23.9,64.3-57.3,82.6-96.6
						l0,0c31.9-68.1,49.7-144,49.7-224.1C367.4,290.2,193.9,277.7,193.1,277.7z"/>
				</g>
			</g>
		</g>
		<g>
			<g>
				
					<ellipse transform="matrix(0.1602 -0.9871 0.9871 0.1602 74.1359 404.5612)" class="st7" cx="274.8" cy="158.7" rx="77.3" ry="77.3"/>
			</g>
			<g>
				<path class="st8" d="M267.6,216.6v-92.8h-16.9v-20.6h39.9v113.4H267.6z"/>
			</g>
		</g>
	</g>
</g>
</svg>
