<svg width="42" height="45" viewBox="0 0 42 45" fill="none" xmlns="http://www.w3.org/2000/svg">
<g clip-path="url(#clip0_51_10)">
<path d="M0 23.6404C0 30.8878 3.72 37.2724 9.36 40.9787C10.215 40.1159 11.0775 39.2531 11.9325 38.3828C10.62 37.6251 9.405 36.7097 8.34 35.6444C5.22 32.5309 3.3 28.2394 3.3 23.4903C3.3 20.5494 4.0425 17.8034 5.34 15.3876L3.3975 15.6952C3.2025 15.7253 3.0075 15.6652 2.8725 15.5227C2.73 15.3876 2.67 15.1926 2.6925 14.9975L2.985 12.9268C1.0875 16.0554 0 19.7166 0 23.6404Z" fill="#504359" fill-opacity="0.37"/>
<path d="M12.7725 38.1577C12.5325 38.0302 12.24 38.0752 12.0525 38.2703C12.015 38.3078 11.9775 38.3453 11.94 38.3828C11.085 39.2456 10.2225 40.1084 9.36749 40.9787C9.35999 40.9862 9.35999 40.9862 9.35249 40.9937C9.21749 41.1287 9.15749 41.3163 9.17999 41.5039C9.20249 41.6914 9.31499 41.8565 9.47249 41.954C12.6975 43.8821 16.47 45 20.505 45C26.4375 45 31.83 42.5842 35.715 38.6979C39.6 34.8116 42.015 29.4248 42.015 23.4903V23.4828C42.015 17.5484 39.6 12.1616 35.715 8.27527C31.83 4.38898 26.4375 1.97317 20.505 1.97317C16.71 1.97317 13.155 2.97101 10.065 4.69658L5.78999 0.19508C5.62499 0.0225226 5.37749 -0.0374974 5.15249 0.0300251C4.92749 0.10505 4.76249 0.300115 4.73249 0.532693L3.11249 11.959L2.97749 12.9268L2.68499 14.9975C2.65499 15.1926 2.72249 15.3876 2.86499 15.5227C3.00749 15.6577 3.20249 15.7253 3.38999 15.6952L5.33249 15.3876L5.80499 15.3126L6.42749 15.2151L17.0775 13.5195C17.235 13.497 17.37 13.407 17.46 13.2869C17.49 13.1894 17.5275 13.0919 17.5875 13.0019C17.6175 12.8143 17.565 12.6192 17.43 12.4767L13.575 8.41782C15.675 7.45 18.0075 6.90232 20.4825 6.90232C25.0725 6.90232 29.1975 8.75543 32.205 11.7564C35.2125 14.7649 37.0575 18.8913 37.0575 23.4828C37.0575 28.0669 35.205 32.2008 32.205 35.2093C29.1975 38.2178 25.0725 40.0634 20.4825 40.0634C20.16 40.0634 19.845 40.0484 19.5225 40.0334C19.44 40.0259 19.3425 40.0184 19.23 40.0109C19.005 39.9959 18.78 39.9733 18.555 39.9508C18.4575 39.9433 18.36 39.9283 18.2475 39.9133C18.0225 39.8833 17.7975 39.8458 17.5725 39.8083C17.4825 39.7933 17.3925 39.7783 17.3175 39.7633C17.0325 39.7108 16.7475 39.6507 16.47 39.5757H16.4625L16.4175 39.5682C15.7875 39.4107 15.165 39.2156 14.565 38.983L14.4825 38.953C14.2125 38.848 13.9425 38.7354 13.6725 38.6154L13.5825 38.5779C13.3275 38.4428 13.05 38.3078 12.7725 38.1577Z" fill="#504359"/>
</g>
<defs>
<clipPath id="clip0_51_10">
<rect width="42" height="45" fill="white"/>
</clipPath>
</defs>
</svg>
